<?xml version="1.0" encoding="UTF-8" ?>
<!DOCTYPE svg PUBLIC "-//W3C//DTD SVG 1.1//EN" "http://www.w3.org/Graphics/SVG/1.1/DTD/svg11.dtd">
<svg width="145pt" height="145pt" viewBox="0 0 145 145" version="1.1" xmlns="http://www.w3.org/2000/svg">
<g id="#5aa0d3ff">
<path fill="#5aa0d3" opacity="0.00" d=" M 0.00 0.00 L 145.00 0.00 L 145.00 145.00 L 0.00 145.00 L 0.00 0.00 M 22.07 46.06 C 22.24 48.75 23.60 51.21 24.38 53.76 C 24.81 54.04 25.68 54.59 26.11 54.87 C 26.63 57.40 29.00 58.89 29.79 61.23 C 30.24 65.76 30.42 70.47 28.99 74.85 C 26.92 82.43 28.20 90.33 28.07 98.07 C 24.88 99.49 21.61 100.73 18.40 102.08 C 20.28 102.59 22.18 103.04 24.09 103.49 C 25.86 102.83 27.65 102.23 29.47 101.72 C 30.13 102.28 31.44 103.40 32.10 103.96 C 32.92 99.64 33.30 95.21 34.86 91.06 C 36.67 86.22 36.80 81.02 36.63 75.92 C 36.44 72.67 38.23 69.85 39.62 67.07 C 41.93 68.19 44.20 69.65 46.83 69.83 C 48.80 70.24 51.22 69.74 52.79 71.26 C 54.46 74.22 55.06 77.67 56.88 80.56 C 56.59 88.01 58.20 95.46 57.15 102.87 C 52.38 103.75 47.88 105.58 43.34 107.19 C 48.19 108.38 53.24 108.11 58.18 107.92 C 60.16 108.03 61.94 106.71 62.60 104.88 C 65.92 96.23 65.84 86.76 64.91 77.68 C 67.82 79.60 70.61 81.74 73.83 83.12 C 78.55 85.03 83.66 85.52 88.65 86.29 C 90.57 86.55 92.62 87.22 94.51 86.43 C 97.05 85.38 98.48 82.88 100.03 80.77 C 106.17 79.95 112.33 80.81 118.42 81.63 C 116.72 81.55 115.02 81.43 113.33 81.31 C 113.46 85.01 112.47 88.58 110.04 91.43 C 114.09 93.99 119.80 94.46 124.04 92.05 C 125.98 89.58 124.26 85.88 126.27 83.33 C 127.65 81.59 127.42 79.49 126.97 77.47 C 124.05 76.82 121.06 76.44 118.18 75.65 C 114.80 74.22 111.81 71.60 107.98 71.46 C 105.06 71.01 101.65 71.82 99.25 69.70 C 97.21 68.12 95.26 66.37 92.82 65.42 C 88.39 63.59 84.58 60.34 79.80 59.36 C 75.82 58.17 71.32 58.53 67.75 56.15 C 64.28 54.04 63.08 49.46 59.21 47.86 C 53.25 45.16 46.52 46.25 40.18 45.97 C 38.68 43.56 37.44 40.68 34.87 39.22 C 29.69 37.24 24.21 41.55 22.07 46.06 Z" />
</g>
<g id="#ffffffff">
<path fill="#ffffff" opacity="1.00" d=" M 22.07 46.06 C 24.21 41.55 29.69 37.24 34.87 39.22 C 37.44 40.68 38.68 43.56 40.18 45.97 C 46.52 46.25 53.25 45.16 59.21 47.86 C 63.08 49.46 64.28 54.04 67.75 56.15 C 71.32 58.53 75.82 58.17 79.80 59.36 C 84.58 60.34 88.39 63.59 92.82 65.42 C 95.26 66.37 97.21 68.12 99.25 69.70 C 101.65 71.82 105.06 71.01 107.98 71.46 C 111.81 71.60 114.80 74.22 118.18 75.65 C 121.06 76.44 124.05 76.82 126.97 77.47 C 127.42 79.49 127.65 81.59 126.27 83.33 C 124.26 85.88 125.98 89.58 124.04 92.05 C 119.80 94.46 114.09 93.99 110.04 91.43 C 112.47 88.58 113.46 85.01 113.33 81.31 C 115.02 81.43 116.72 81.55 118.42 81.63 C 112.33 80.81 106.17 79.95 100.03 80.77 C 98.48 82.88 97.05 85.38 94.51 86.43 C 92.62 87.22 90.57 86.55 88.65 86.29 C 83.66 85.52 78.55 85.03 73.83 83.12 C 70.61 81.74 67.82 79.60 64.91 77.68 C 65.84 86.76 65.92 96.23 62.60 104.88 C 61.94 106.71 60.16 108.03 58.18 107.92 C 53.24 108.11 48.19 108.38 43.34 107.19 C 47.88 105.58 52.38 103.75 57.15 102.87 C 58.20 95.46 56.59 88.01 56.88 80.56 C 55.06 77.67 54.46 74.22 52.79 71.26 C 51.22 69.74 48.80 70.24 46.83 69.83 C 44.20 69.65 41.93 68.19 39.62 67.07 C 38.23 69.85 36.44 72.67 36.63 75.92 C 36.80 81.02 36.67 86.22 34.86 91.06 C 33.30 95.21 32.92 99.64 32.10 103.96 C 31.44 103.40 30.13 102.28 29.47 101.72 C 27.65 102.23 25.86 102.83 24.09 103.49 C 22.18 103.04 20.28 102.59 18.40 102.08 C 21.61 100.73 24.88 99.49 28.07 98.07 C 28.20 90.33 26.92 82.43 28.99 74.85 C 30.42 70.47 30.24 65.76 29.79 61.23 C 29.00 58.89 26.63 57.40 26.11 54.87 C 25.68 54.59 24.81 54.04 24.38 53.76 C 23.60 51.21 22.24 48.75 22.07 46.06 Z" />
</g>
</svg>
