<?xml version="1.0" encoding="UTF-8" ?>
<!DOCTYPE svg PUBLIC "-//W3C//DTD SVG 1.1//EN" "http://www.w3.org/Graphics/SVG/1.1/DTD/svg11.dtd">
<svg width="228pt" height="228pt" viewBox="0 0 228 228" version="1.1" xmlns="http://www.w3.org/2000/svg">
<g id="#5aa0d3ff">
<path fill="#5aa0d3" opacity="0.00" d=" M 0.00 0.00 L 228.00 0.00 L 228.00 228.00 L 0.00 228.00 L 0.00 0.00 M 63.05 85.07 C 63.33 87.74 64.50 90.23 65.37 92.74 C 65.77 93.03 66.55 93.60 66.95 93.88 C 68.18 96.25 70.09 98.29 70.88 100.85 C 71.28 105.17 71.27 109.62 70.01 113.81 C 67.96 121.43 69.18 129.35 69.06 137.11 C 65.87 138.44 62.64 139.69 59.51 141.16 C 61.36 141.61 63.21 142.04 65.07 142.48 C 66.83 141.85 68.62 141.25 70.42 140.71 C 71.10 141.28 72.47 142.42 73.16 142.99 C 73.79 138.06 74.70 133.18 76.33 128.48 C 78.99 121.17 75.75 112.75 80.55 106.07 C 84.35 108.69 88.99 108.69 93.25 109.82 C 95.56 112.61 96.01 116.55 97.88 119.67 C 97.69 127.06 99.04 134.42 98.23 141.79 C 93.56 142.85 89.03 144.41 84.56 146.12 C 89.66 147.45 95.00 147.20 100.20 146.78 C 102.14 146.64 103.34 144.80 103.89 143.12 C 106.91 134.66 106.81 125.50 105.91 116.68 C 107.99 118.09 110.05 119.56 112.24 120.81 C 117.05 123.62 122.70 124.24 128.10 125.10 C 130.37 125.35 132.66 126.03 134.95 125.62 C 137.81 124.77 139.36 121.95 141.10 119.75 C 147.23 119.00 153.38 119.76 159.44 120.71 C 157.75 120.61 156.07 120.46 154.39 120.32 C 154.42 124.09 153.30 127.67 151.02 130.69 C 155.33 132.69 160.75 133.62 165.03 131.04 C 166.70 128.76 165.59 125.47 166.98 123.00 C 168.18 121.01 168.50 118.78 168.11 116.50 C 165.14 115.87 162.11 115.46 159.19 114.60 C 156.05 113.36 153.32 111.02 149.88 110.59 C 146.47 109.97 142.46 110.91 139.72 108.27 C 135.78 104.87 130.77 103.18 126.37 100.49 C 121.58 97.69 115.85 97.86 110.71 96.17 C 105.73 94.52 104.46 88.32 99.57 86.57 C 93.75 84.28 87.35 85.20 81.24 84.97 C 79.68 82.60 78.44 79.73 75.90 78.24 C 70.69 76.22 65.22 80.54 63.05 85.07 Z" />
</g>
<g id="#ffffffff">
<path fill="#ffffff" opacity="1.00" d=" M 63.05 85.07 C 65.22 80.54 70.69 76.22 75.90 78.24 C 78.44 79.73 79.68 82.60 81.24 84.97 C 87.35 85.20 93.75 84.28 99.57 86.57 C 104.46 88.32 105.73 94.52 110.71 96.17 C 115.85 97.86 121.58 97.69 126.37 100.49 C 130.77 103.18 135.78 104.87 139.72 108.27 C 142.46 110.91 146.47 109.97 149.88 110.59 C 153.32 111.02 156.05 113.36 159.19 114.60 C 162.11 115.46 165.14 115.87 168.11 116.50 C 168.50 118.78 168.18 121.01 166.98 123.00 C 165.59 125.47 166.70 128.76 165.03 131.04 C 160.75 133.62 155.33 132.69 151.02 130.69 C 153.30 127.67 154.42 124.09 154.39 120.32 C 156.07 120.46 157.75 120.61 159.44 120.71 C 153.38 119.76 147.23 119.00 141.10 119.75 C 139.36 121.95 137.81 124.77 134.95 125.62 C 132.66 126.03 130.37 125.35 128.10 125.10 C 122.70 124.24 117.05 123.62 112.24 120.81 C 110.05 119.56 107.99 118.09 105.91 116.68 C 106.81 125.50 106.91 134.66 103.89 143.12 C 103.34 144.80 102.14 146.64 100.20 146.78 C 95.00 147.20 89.66 147.45 84.56 146.12 C 89.03 144.41 93.56 142.85 98.23 141.79 C 99.04 134.42 97.69 127.06 97.88 119.67 C 96.01 116.55 95.56 112.61 93.25 109.82 C 88.99 108.69 84.35 108.69 80.55 106.07 C 75.75 112.75 78.99 121.17 76.33 128.48 C 74.70 133.18 73.79 138.06 73.16 142.99 C 72.47 142.42 71.10 141.28 70.42 140.71 C 68.62 141.25 66.83 141.85 65.07 142.48 C 63.21 142.04 61.36 141.61 59.51 141.16 C 62.64 139.69 65.87 138.44 69.06 137.11 C 69.18 129.35 67.96 121.43 70.01 113.81 C 71.27 109.62 71.28 105.17 70.88 100.85 C 70.09 98.29 68.18 96.25 66.95 93.88 C 66.55 93.60 65.77 93.03 65.37 92.74 C 64.50 90.23 63.33 87.74 63.05 85.07 Z" />
</g>
</svg>
