<?xml version="1.0" encoding="UTF-8" ?>
<!DOCTYPE svg PUBLIC "-//W3C//DTD SVG 1.1//EN" "http://www.w3.org/Graphics/SVG/1.1/DTD/svg11.dtd">
<svg width="184pt" height="184pt" viewBox="0 0 184 184" version="1.1" xmlns="http://www.w3.org/2000/svg">
<g id="#ffffffff">
<path fill="#ffffff" opacity="1.00" d=" M 37.36 32.72 C 38.79 25.15 46.44 19.89 53.96 20.05 C 79.64 20.09 105.32 20.02 131.00 20.09 C 138.19 20.29 145.27 25.49 146.63 32.70 C 146.91 32.69 147.48 32.65 147.77 32.63 C 147.78 72.21 147.78 111.79 147.77 151.37 C 147.48 151.35 146.91 151.32 146.62 151.30 C 145.22 158.83 137.60 164.07 130.12 163.95 C 104.41 163.92 78.70 163.98 52.99 163.91 C 45.80 163.71 38.73 158.50 37.37 151.29 C 37.08 151.31 36.51 151.35 36.23 151.37 C 36.22 111.79 36.22 72.21 36.23 32.63 C 36.51 32.65 37.08 32.69 37.36 32.72 M 47.70 30.74 C 47.55 33.15 47.53 35.58 47.55 38.00 C 47.65 76.42 47.38 114.83 47.68 153.24 C 77.23 153.37 106.78 153.39 136.33 153.23 C 136.53 112.42 136.51 71.59 136.33 30.77 C 106.79 30.59 77.25 30.67 47.70 30.74 Z" />
<path fill="#ffffff" opacity="1.00" d=" M 58.81 53.15 C 62.35 53.22 65.90 53.25 69.43 53.06 C 69.54 56.87 69.51 60.69 69.47 64.50 C 65.92 64.42 62.36 64.43 58.81 64.46 C 58.80 60.69 58.80 56.92 58.81 53.15 Z" />
<path fill="#ffffff" opacity="1.00" d=" M 81.35 53.12 C 95.96 53.26 110.58 53.20 125.19 53.16 C 125.20 56.92 125.20 60.69 125.19 64.46 C 110.59 64.47 95.99 64.36 81.39 64.52 C 81.28 60.72 81.31 56.92 81.35 53.12 Z" />
<path fill="#ffffff" opacity="1.00" d=" M 58.81 75.66 C 62.36 75.69 65.92 75.70 69.48 75.64 C 69.52 79.24 69.52 82.84 69.47 86.44 C 65.92 86.37 62.36 86.38 58.81 86.41 C 58.80 82.82 58.80 79.24 58.81 75.66 Z" />
<path fill="#ffffff" opacity="1.00" d=" M 81.36 86.43 C 81.30 82.84 81.31 79.24 81.35 75.64 C 94.08 75.70 106.80 75.71 119.53 75.64 C 119.57 79.24 119.57 82.84 119.53 86.44 C 106.80 86.35 94.08 86.36 81.36 86.43 Z" />
<path fill="#ffffff" opacity="1.00" d=" M 58.81 97.59 C 62.36 97.62 65.92 97.63 69.47 97.56 C 69.52 101.16 69.52 104.76 69.48 108.36 C 65.92 108.30 62.36 108.31 58.81 108.34 C 58.80 104.75 58.80 101.17 58.81 97.59 Z" />
<path fill="#ffffff" opacity="1.00" d=" M 81.35 108.36 C 81.31 104.76 81.30 101.16 81.36 97.56 C 95.97 97.66 110.58 97.60 125.19 97.60 C 125.20 101.18 125.20 104.75 125.19 108.33 C 110.58 108.32 95.96 108.28 81.35 108.36 Z" />
<path fill="#ffffff" opacity="1.00" d=" M 58.81 119.54 C 62.36 119.57 65.92 119.58 69.47 119.50 C 69.51 123.31 69.55 127.12 69.43 130.94 C 65.89 130.75 62.35 130.78 58.81 130.85 C 58.80 127.08 58.80 123.31 58.81 119.54 Z" />
<path fill="#ffffff" opacity="1.00" d=" M 81.37 130.89 C 81.30 127.09 81.30 123.30 81.36 119.50 C 94.08 119.59 106.80 119.60 119.52 119.49 C 119.58 123.29 119.56 127.08 119.54 130.88 C 106.82 130.76 94.09 130.74 81.37 130.89 Z" />
</g>
</svg>
