<?xml version="1.0" encoding="UTF-8" ?>
<!DOCTYPE svg PUBLIC "-//W3C//DTD SVG 1.1//EN" "http://www.w3.org/Graphics/SVG/1.1/DTD/svg11.dtd">
<svg width="154pt" height="154pt" viewBox="0 0 154 154" version="1.1" xmlns="http://www.w3.org/2000/svg">
<g id="#89b916ff">
<path fill="#89b916" opacity="0.00" d=" M 0.00 0.00 L 154.00 0.00 L 154.00 154.00 L 0.00 154.00 L 0.00 0.00 M 64.49 16.78 C 63.58 20.53 64.19 24.46 64.38 28.27 C 64.59 28.70 65.02 29.55 65.24 29.98 C 65.53 31.22 65.87 32.45 66.02 33.72 C 65.02 34.98 63.40 35.15 61.95 35.52 C 60.01 35.70 57.70 35.69 56.36 37.35 C 55.37 39.74 55.56 42.83 53.12 44.35 C 51.96 45.71 50.67 47.53 51.68 49.36 C 53.18 52.45 52.27 55.82 52.03 59.06 C 51.78 61.27 53.83 62.62 55.02 64.16 C 56.70 61.99 59.11 59.57 58.11 56.55 C 58.74 55.64 59.37 54.74 60.01 53.84 C 59.40 60.58 60.29 67.40 61.50 74.01 C 61.70 78.46 61.34 83.08 62.97 87.32 C 62.40 88.14 61.82 88.96 61.24 89.78 L 61.26 89.99 C 59.11 93.05 58.18 97.09 60.00 100.54 L 60.01 100.81 C 61.54 102.98 63.14 105.10 64.80 107.18 C 64.96 107.53 65.30 108.24 65.47 108.59 L 65.79 108.78 C 67.57 112.86 69.78 116.78 71.04 121.07 C 70.72 123.07 69.20 124.87 69.97 127.00 C 71.02 130.41 67.96 132.74 66.23 135.20 C 67.65 137.53 70.56 136.53 72.79 136.55 L 73.06 136.39 C 74.75 135.51 75.78 133.97 76.32 132.17 C 76.42 131.75 76.62 130.91 76.72 130.49 C 78.08 128.81 79.60 127.11 80.05 124.93 C 79.32 122.28 76.47 121.07 75.19 118.74 C 73.36 115.24 73.15 111.21 72.65 107.38 L 72.00 107.09 L 72.53 105.86 L 71.78 105.47 C 70.78 102.81 68.55 100.85 67.86 98.02 C 69.44 99.83 71.74 101.31 72.18 103.85 C 72.67 106.11 73.76 108.18 75.71 109.51 C 76.20 110.73 76.66 111.96 77.12 113.20 L 77.93 113.09 L 77.50 113.85 C 77.78 114.24 78.33 115.03 78.61 115.42 C 78.73 115.77 78.99 116.48 79.11 116.84 C 81.25 120.69 83.87 124.35 85.26 128.56 C 86.37 133.59 86.87 138.75 86.70 143.90 C 87.65 145.77 89.78 144.46 91.31 144.41 L 91.01 143.34 L 91.93 143.36 C 93.18 141.09 93.46 138.55 93.25 136.01 C 92.98 132.84 95.93 130.34 95.38 127.15 C 93.80 125.23 91.20 124.88 89.00 124.05 C 88.23 122.32 87.43 120.61 86.81 118.82 C 85.51 115.67 86.45 112.06 84.80 109.00 C 81.35 105.21 79.65 100.35 78.20 95.54 L 78.66 95.63 C 77.47 92.86 78.17 90.12 80.01 87.85 C 81.09 86.70 82.17 85.54 83.29 84.43 L 82.15 84.61 C 85.91 79.60 84.26 72.76 84.77 66.90 C 86.69 66.45 89.09 66.99 90.67 65.60 C 91.49 63.98 92.10 62.27 92.87 60.63 L 92.61 60.17 C 93.78 58.42 94.84 56.61 95.81 54.75 C 96.01 54.38 96.40 53.65 96.59 53.29 C 97.48 51.30 97.71 49.13 97.61 46.97 C 96.59 45.45 95.62 43.90 94.66 42.34 L 93.54 43.46 L 94.32 41.88 C 93.43 41.43 92.54 40.98 91.66 40.53 C 88.99 38.42 86.88 34.69 83.00 35.01 C 79.89 35.03 76.99 33.84 74.28 32.43 C 74.08 28.26 77.74 25.17 77.49 20.99 C 78.07 14.41 68.19 12.51 64.49 16.78 Z" />
<path fill="#89b916" opacity="0.00" d=" M 82.41 53.82 C 80.97 50.62 82.83 47.39 83.91 44.40 C 85.69 45.24 87.45 46.13 89.16 47.10 C 90.39 47.79 92.59 47.95 92.12 49.90 C 91.69 52.59 91.26 55.39 89.98 57.83 C 87.85 59.97 84.09 59.59 82.61 62.57 C 81.55 59.79 81.41 56.63 82.41 53.82 Z" />
<path fill="#89b916" opacity="0.00" d=" M 81.32 63.95 C 83.03 62.67 84.99 61.73 87.16 62.29 C 86.12 63.49 85.06 64.67 83.99 65.85 C 83.32 65.37 81.99 64.42 81.32 63.95 Z" />
</g>
<g id="#ffffffff">
<path fill="#ffffff" opacity="1.00" d=" M 64.49 16.78 C 68.19 12.51 78.07 14.41 77.49 20.99 C 77.74 25.17 74.08 28.26 74.28 32.43 C 76.99 33.84 79.89 35.03 83.00 35.01 C 86.88 34.69 88.99 38.42 91.66 40.53 C 92.54 40.98 93.43 41.43 94.32 41.88 L 93.54 43.46 L 94.66 42.34 C 95.62 43.90 96.59 45.45 97.61 46.97 C 97.71 49.13 97.48 51.30 96.59 53.29 C 96.40 53.65 96.01 54.38 95.81 54.75 C 94.84 56.61 93.78 58.42 92.61 60.17 L 92.87 60.63 C 92.10 62.27 91.49 63.98 90.67 65.60 C 89.09 66.99 86.69 66.45 84.77 66.90 C 84.26 72.76 85.91 79.60 82.15 84.61 L 83.29 84.43 C 82.17 85.54 81.09 86.70 80.01 87.85 C 78.17 90.12 77.47 92.86 78.66 95.63 L 78.20 95.54 C 79.65 100.35 81.35 105.21 84.80 109.00 C 86.45 112.06 85.51 115.67 86.81 118.82 C 87.43 120.61 88.23 122.32 89.00 124.05 C 91.20 124.88 93.80 125.23 95.38 127.15 C 95.93 130.34 92.98 132.84 93.25 136.01 C 93.46 138.55 93.18 141.09 91.93 143.36 L 91.01 143.34 L 91.31 144.41 C 89.78 144.46 87.65 145.77 86.70 143.90 C 86.87 138.75 86.37 133.59 85.26 128.56 C 83.87 124.35 81.25 120.69 79.11 116.84 C 78.99 116.48 78.73 115.77 78.61 115.42 C 78.33 115.03 77.78 114.24 77.50 113.85 L 77.93 113.09 L 77.12 113.20 C 76.66 111.96 76.20 110.73 75.71 109.51 C 73.76 108.18 72.67 106.11 72.18 103.85 C 71.74 101.31 69.44 99.83 67.86 98.02 C 68.55 100.85 70.78 102.81 71.78 105.47 L 72.53 105.86 L 72.00 107.09 L 72.65 107.38 C 73.15 111.21 73.36 115.24 75.19 118.74 C 76.47 121.07 79.32 122.28 80.05 124.93 C 79.60 127.11 78.08 128.81 76.72 130.49 C 76.62 130.91 76.42 131.75 76.32 132.17 C 75.78 133.97 74.75 135.51 73.06 136.39 L 72.79 136.55 C 70.56 136.53 67.65 137.53 66.23 135.20 C 67.96 132.74 71.02 130.41 69.97 127.00 C 69.20 124.87 70.72 123.07 71.04 121.07 C 69.78 116.78 67.57 112.86 65.79 108.78 L 65.47 108.59 C 65.30 108.24 64.96 107.53 64.80 107.18 C 63.14 105.10 61.54 102.98 60.01 100.81 L 60.00 100.54 C 58.18 97.09 59.11 93.05 61.26 89.99 L 61.24 89.78 C 61.82 88.96 62.40 88.14 62.97 87.32 C 61.34 83.08 61.70 78.46 61.50 74.01 C 60.29 67.40 59.40 60.58 60.01 53.84 C 59.37 54.74 58.74 55.64 58.11 56.55 C 59.11 59.57 56.70 61.99 55.02 64.16 C 53.83 62.62 51.78 61.27 52.03 59.06 C 52.27 55.82 53.18 52.45 51.68 49.36 C 50.67 47.53 51.96 45.71 53.12 44.35 C 55.56 42.83 55.37 39.74 56.36 37.35 C 57.70 35.69 60.01 35.70 61.95 35.52 C 63.40 35.15 65.02 34.98 66.02 33.72 C 65.87 32.45 65.53 31.22 65.24 29.98 C 65.02 29.55 64.59 28.70 64.38 28.27 C 64.19 24.46 63.58 20.53 64.49 16.78 M 82.41 53.82 C 81.41 56.63 81.55 59.79 82.61 62.57 C 84.09 59.59 87.85 59.97 89.98 57.83 C 91.26 55.39 91.69 52.59 92.12 49.90 C 92.59 47.95 90.39 47.79 89.16 47.10 C 87.45 46.13 85.69 45.24 83.91 44.40 C 82.83 47.39 80.97 50.62 82.41 53.82 M 81.32 63.95 C 81.99 64.42 83.32 65.37 83.99 65.85 C 85.06 64.67 86.12 63.49 87.16 62.29 C 84.99 61.73 83.03 62.67 81.32 63.95 Z" />
</g>
</svg>
