<?xml version="1.0" encoding="UTF-8" ?>
<!DOCTYPE svg PUBLIC "-//W3C//DTD SVG 1.1//EN" "http://www.w3.org/Graphics/SVG/1.1/DTD/svg11.dtd">
<svg width="228pt" height="228pt" viewBox="0 0 228 228" version="1.1" xmlns="http://www.w3.org/2000/svg">
<g id="#89b916ff">
<path fill="#89b916" opacity="0.00" d=" M 0.00 0.00 L 228.00 0.00 L 228.00 228.00 L 0.00 228.00 L 0.00 0.00 M 109.26 51.43 C 108.61 57.30 109.21 63.17 111.07 68.77 C 108.58 71.11 104.65 70.09 101.81 71.75 C 100.78 73.57 100.56 75.71 99.66 77.58 C 98.60 79.17 97.21 80.51 96.25 82.16 C 96.42 84.16 97.43 85.99 97.52 87.99 C 97.57 90.34 96.98 92.64 97.08 94.99 C 97.38 96.76 99.08 97.83 100.06 99.23 C 103.06 96.24 103.61 92.04 104.25 88.06 C 104.70 93.49 105.11 98.93 105.67 104.35 C 107.07 110.35 106.16 116.63 107.79 122.60 C 106.14 125.15 104.28 127.77 103.98 130.89 C 103.68 133.94 105.61 136.57 107.28 138.92 C 111.30 143.96 113.96 149.95 116.01 156.02 C 115.60 158.02 114.50 159.91 114.97 162.02 C 115.77 165.49 112.99 168.07 110.95 170.42 C 113.54 172.37 117.49 172.15 119.91 170.05 C 121.32 166.54 123.56 163.40 125.01 159.95 C 124.17 157.00 120.56 155.49 119.58 152.43 C 117.58 147.03 118.57 140.48 114.00 136.19 C 113.81 135.40 113.42 133.83 113.22 133.05 C 116.54 136.01 117.33 140.59 119.96 144.03 C 122.24 147.21 123.59 150.93 125.56 154.30 C 127.23 157.35 129.29 160.25 130.25 163.63 C 131.50 168.64 131.71 173.82 131.77 178.95 C 132.90 181.16 135.91 179.62 136.84 177.95 C 138.53 176.01 138.28 173.36 138.29 170.98 C 138.14 167.82 140.83 165.24 140.38 162.06 C 138.68 160.30 136.17 159.87 133.98 159.00 C 132.49 155.82 131.04 152.52 130.97 148.95 C 130.93 146.82 130.30 144.76 129.02 143.05 C 125.36 138.28 123.06 132.26 123.10 126.23 C 124.75 122.97 127.49 120.35 128.82 116.92 C 129.90 112.01 129.69 106.94 129.80 101.94 C 132.05 101.31 135.76 102.26 136.33 99.14 C 137.83 94.61 140.59 90.66 142.33 86.24 C 143.68 82.56 141.19 78.92 138.42 76.69 C 135.70 74.73 133.44 72.18 130.60 70.39 C 126.66 69.97 122.68 69.47 119.18 67.43 C 119.57 62.29 124.50 57.58 121.65 52.34 C 118.59 48.70 112.99 48.95 109.26 51.43 Z" />
<path fill="#89b916" opacity="0.00" d=" M 127.03 88.42 C 126.71 85.35 127.42 82.28 128.96 79.61 C 131.82 80.70 134.50 82.20 137.26 83.52 C 136.73 86.62 136.50 89.90 135.01 92.74 C 132.44 94.72 129.16 95.61 126.54 97.58 C 126.93 94.54 126.90 91.48 127.03 88.42 Z" />
<path fill="#89b916" opacity="0.00" d=" M 126.31 98.89 C 128.06 97.67 130.04 96.82 132.21 97.20 C 131.14 98.42 130.07 99.63 128.98 100.83 C 128.31 100.34 126.98 99.37 126.31 98.89 Z" />
</g>
<g id="#ffffffff">
<path fill="#ffffff" opacity="1.00" d=" M 109.26 51.43 C 112.99 48.95 118.59 48.70 121.65 52.34 C 124.50 57.58 119.57 62.29 119.18 67.43 C 122.68 69.47 126.66 69.97 130.60 70.39 C 133.44 72.18 135.70 74.73 138.42 76.69 C 141.19 78.92 143.68 82.56 142.33 86.24 C 140.59 90.66 137.83 94.61 136.33 99.14 C 135.76 102.26 132.05 101.31 129.80 101.94 C 129.69 106.94 129.90 112.01 128.82 116.92 C 127.49 120.35 124.75 122.97 123.10 126.23 C 123.06 132.26 125.36 138.28 129.02 143.05 C 130.30 144.76 130.93 146.82 130.97 148.95 C 131.04 152.52 132.49 155.82 133.98 159.00 C 136.17 159.87 138.68 160.30 140.38 162.06 C 140.83 165.24 138.14 167.82 138.29 170.98 C 138.28 173.36 138.53 176.01 136.84 177.95 C 135.91 179.62 132.90 181.16 131.77 178.95 C 131.71 173.82 131.50 168.64 130.25 163.63 C 129.29 160.25 127.23 157.35 125.56 154.30 C 123.59 150.93 122.24 147.21 119.96 144.03 C 117.33 140.59 116.54 136.01 113.22 133.05 C 113.42 133.83 113.81 135.40 114.00 136.19 C 118.57 140.48 117.58 147.03 119.58 152.43 C 120.56 155.49 124.17 157.00 125.01 159.95 C 123.56 163.40 121.32 166.54 119.91 170.05 C 117.49 172.15 113.54 172.37 110.95 170.42 C 112.99 168.07 115.77 165.49 114.97 162.02 C 114.50 159.91 115.60 158.02 116.01 156.02 C 113.96 149.95 111.30 143.96 107.28 138.92 C 105.61 136.57 103.68 133.94 103.98 130.89 C 104.28 127.77 106.14 125.15 107.79 122.60 C 106.16 116.63 107.07 110.35 105.67 104.35 C 105.11 98.93 104.70 93.49 104.25 88.06 C 103.61 92.04 103.06 96.24 100.06 99.23 C 99.08 97.83 97.38 96.76 97.08 94.99 C 96.98 92.64 97.57 90.34 97.52 87.99 C 97.43 85.99 96.42 84.16 96.25 82.16 C 97.21 80.51 98.60 79.17 99.66 77.58 C 100.56 75.71 100.78 73.57 101.81 71.75 C 104.65 70.09 108.58 71.11 111.07 68.77 C 109.21 63.17 108.61 57.30 109.26 51.43 M 127.03 88.42 C 126.90 91.48 126.93 94.54 126.54 97.58 C 129.16 95.61 132.44 94.72 135.01 92.74 C 136.50 89.90 136.73 86.62 137.26 83.52 C 134.50 82.20 131.82 80.70 128.96 79.61 C 127.42 82.28 126.71 85.35 127.03 88.42 M 126.31 98.89 C 126.98 99.37 128.31 100.34 128.98 100.83 C 130.07 99.63 131.14 98.42 132.21 97.20 C 130.04 96.82 128.06 97.67 126.31 98.89 Z" />
</g>
</svg>
