<?xml version="1.0" encoding="UTF-8" ?>
<!DOCTYPE svg PUBLIC "-//W3C//DTD SVG 1.1//EN" "http://www.w3.org/Graphics/SVG/1.1/DTD/svg11.dtd">
<svg width="167pt" height="167pt" viewBox="0 0 167 167" version="1.1" xmlns="http://www.w3.org/2000/svg">
<g id="#e95d0fff">
<path fill="#e95d0f" opacity="0.00" d=" M 0.00 0.00 L 167.00 0.00 L 167.00 167.00 L 0.00 167.00 L 0.00 0.00 M 90.64 58.78 C 89.89 60.44 88.73 62.09 88.99 64.01 C 89.01 69.97 94.53 74.19 94.61 80.13 C 91.74 83.43 86.55 82.67 82.65 82.27 C 79.39 79.95 76.83 76.78 73.99 73.99 C 70.77 70.80 68.65 66.36 64.43 64.30 C 62.41 63.58 60.43 64.79 58.52 65.29 C 55.57 63.32 52.32 59.45 48.43 61.62 C 42.80 65.62 40.74 72.76 39.11 79.14 C 37.87 84.81 35.13 90.00 31.80 94.71 C 31.36 94.54 30.48 94.18 30.04 94.01 C 28.00 96.00 26.16 98.22 23.86 99.93 C 21.61 101.23 18.92 101.26 16.45 101.85 C 16.16 102.85 15.57 104.85 15.28 105.85 C 19.16 107.07 23.25 106.88 27.25 107.24 C 31.12 108.08 35.08 109.31 39.09 108.56 C 41.46 108.22 43.75 106.88 46.19 107.61 C 48.91 108.21 51.65 107.55 54.31 107.00 C 53.66 104.10 52.59 101.32 51.20 98.69 C 53.19 95.40 55.70 92.48 58.27 89.64 C 62.33 95.79 65.93 104.31 74.15 105.46 C 82.10 106.53 90.14 105.80 98.12 105.65 C 104.93 105.12 111.84 105.10 118.48 103.31 C 124.86 101.31 131.51 103.68 138.02 102.85 C 143.17 102.32 149.44 102.79 153.05 98.32 C 148.61 90.87 142.56 84.62 137.06 77.98 C 135.75 76.41 133.61 76.01 131.85 75.16 C 132.06 74.11 132.28 73.06 132.51 72.01 C 130.77 66.49 122.39 63.78 118.77 68.98 C 115.05 66.93 110.38 67.71 107.00 64.97 C 102.19 61.51 96.75 58.54 90.64 58.78 Z" />
<path fill="#e95d0f" opacity="0.00" d=" M 101.10 68.64 C 103.99 69.20 106.75 70.24 109.54 71.16 C 110.96 73.81 113.97 73.97 116.60 74.36 C 116.04 76.65 115.30 78.89 114.28 81.01 C 112.61 79.81 111.01 78.51 109.46 77.15 C 108.60 72.79 104.15 71.20 101.10 68.64 Z" />
<path fill="#e95d0f" opacity="0.00" d=" M 46.71 87.58 C 49.13 85.06 50.21 81.67 51.73 78.61 C 50.07 84.80 48.03 91.02 44.12 96.20 C 42.55 96.67 40.99 97.18 39.41 97.64 C 41.16 93.83 43.90 90.64 46.71 87.58 Z" />
<path fill="#e95d0f" opacity="0.00" d=" M 121.36 89.14 C 121.73 85.32 124.23 82.51 127.43 80.65 C 127.76 81.18 128.41 82.24 128.74 82.77 C 130.70 83.11 132.96 82.83 134.68 83.98 C 136.94 86.37 138.47 89.35 139.76 92.35 C 137.37 92.44 134.98 92.38 132.60 92.17 C 129.44 89.55 125.09 90.26 121.36 89.14 Z" />
</g>
<g id="#ffffffff">
<path fill="#ffffff" opacity="1.00" d=" M 90.64 58.78 C 96.75 58.54 102.19 61.51 107.00 64.97 C 110.38 67.71 115.05 66.93 118.77 68.98 C 122.39 63.78 130.77 66.49 132.51 72.01 C 132.28 73.06 132.06 74.11 131.85 75.16 C 133.61 76.01 135.75 76.41 137.06 77.98 C 142.56 84.62 148.61 90.87 153.05 98.32 C 149.44 102.79 143.17 102.32 138.02 102.85 C 131.51 103.68 124.86 101.31 118.48 103.31 C 111.84 105.10 104.93 105.12 98.12 105.65 C 90.14 105.80 82.10 106.53 74.15 105.46 C 65.93 104.31 62.33 95.79 58.27 89.64 C 55.70 92.48 53.19 95.40 51.20 98.69 C 52.59 101.32 53.66 104.10 54.31 107.00 C 51.65 107.55 48.91 108.21 46.19 107.61 C 43.75 106.88 41.46 108.22 39.09 108.56 C 35.08 109.31 31.12 108.08 27.25 107.24 C 23.25 106.88 19.16 107.07 15.28 105.85 C 15.57 104.85 16.16 102.85 16.45 101.85 C 18.92 101.26 21.61 101.23 23.86 99.93 C 26.16 98.22 28.00 96.00 30.04 94.01 C 30.48 94.18 31.36 94.54 31.80 94.71 C 35.13 90.00 37.87 84.81 39.11 79.14 C 40.74 72.76 42.80 65.62 48.43 61.62 C 52.32 59.45 55.57 63.32 58.52 65.29 C 60.43 64.79 62.41 63.58 64.43 64.30 C 68.65 66.36 70.77 70.80 73.99 73.99 C 76.83 76.78 79.39 79.95 82.65 82.27 C 86.55 82.67 91.74 83.43 94.61 80.13 C 94.53 74.19 89.01 69.97 88.99 64.01 C 88.73 62.09 89.89 60.44 90.64 58.78 M 101.10 68.64 C 104.15 71.20 108.60 72.79 109.46 77.15 C 111.01 78.51 112.61 79.81 114.28 81.01 C 115.30 78.89 116.04 76.65 116.60 74.36 C 113.97 73.97 110.96 73.81 109.54 71.16 C 106.75 70.24 103.99 69.20 101.10 68.64 M 46.71 87.58 C 43.90 90.64 41.16 93.83 39.41 97.64 C 40.99 97.18 42.55 96.67 44.12 96.20 C 48.03 91.02 50.07 84.80 51.73 78.61 C 50.21 81.67 49.13 85.06 46.71 87.58 M 121.36 89.14 C 125.09 90.26 129.44 89.55 132.60 92.17 C 134.98 92.38 137.37 92.44 139.76 92.35 C 138.47 89.35 136.94 86.37 134.68 83.98 C 132.96 82.83 130.70 83.11 128.74 82.77 C 128.41 82.24 127.76 81.18 127.43 80.65 C 124.23 82.51 121.73 85.32 121.36 89.14 Z" />
</g>
</svg>
