<?xml version="1.0" encoding="UTF-8" ?>
<!DOCTYPE svg PUBLIC "-//W3C//DTD SVG 1.1//EN" "http://www.w3.org/Graphics/SVG/1.1/DTD/svg11.dtd">
<svg width="228pt" height="228pt" viewBox="0 0 228 228" version="1.1" xmlns="http://www.w3.org/2000/svg">
<g id="#e95d0fff">
<path fill="#e95d0f" opacity="0.00" d=" M 0.00 0.00 L 228.00 0.00 L 228.00 228.00 L 0.00 228.00 L 0.00 0.00 M 119.72 89.76 C 118.91 91.41 117.66 93.03 117.99 94.98 C 117.97 100.95 123.54 105.16 123.60 111.08 C 120.80 114.48 115.56 113.63 111.66 113.29 C 108.41 110.96 105.84 107.80 103.01 105.00 C 99.76 101.82 97.67 97.36 93.44 95.30 C 91.44 94.55 89.48 95.78 87.61 96.34 C 84.61 94.38 81.39 90.45 77.44 92.60 C 71.81 96.62 69.73 103.75 68.12 110.15 C 66.86 115.81 64.14 121.01 60.80 125.71 C 60.35 125.54 59.47 125.18 59.03 125.01 C 56.82 127.12 54.91 129.63 52.30 131.27 C 50.11 132.16 47.73 132.38 45.44 132.86 C 45.14 133.84 44.55 135.80 44.26 136.78 C 49.27 138.64 54.75 137.33 59.78 139.06 C 64.19 140.32 68.80 139.76 73.08 138.34 C 76.47 139.02 79.92 139.00 83.24 137.96 C 82.68 135.07 81.63 132.32 80.19 129.77 C 82.13 126.41 84.67 123.47 87.31 120.66 C 91.32 126.86 95.00 135.39 103.25 136.47 C 111.16 137.53 119.17 136.80 127.12 136.65 C 133.93 136.12 140.84 136.10 147.48 134.31 C 153.86 132.30 160.51 134.69 167.02 133.85 C 172.16 133.28 178.54 133.86 182.04 129.24 C 177.54 121.84 171.53 115.56 166.01 108.93 C 164.75 107.35 162.61 107.06 160.88 106.23 C 161.09 105.19 161.30 104.14 161.48 103.08 C 159.90 97.47 151.26 94.71 147.77 100.07 C 144.09 97.78 139.28 98.81 135.90 95.91 C 131.15 92.48 125.76 89.57 119.72 89.76 Z" />
<path fill="#e95d0f" opacity="0.00" d=" M 130.22 99.67 C 133.10 100.26 135.86 101.25 138.64 102.20 C 139.93 104.91 142.95 104.91 145.54 105.28 C 145.10 107.61 144.36 109.87 143.27 111.99 C 141.57 110.78 139.94 109.47 138.39 108.07 C 137.63 103.73 133.12 102.30 130.22 99.67 Z" />
<path fill="#e95d0f" opacity="0.00" d=" M 75.69 118.62 C 78.12 116.09 79.20 112.69 80.70 109.60 C 79.10 115.84 77.00 122.05 73.09 127.26 C 71.54 127.55 70.06 128.13 68.62 128.75 C 69.95 124.75 72.94 121.69 75.69 118.62 Z" />
<path fill="#e95d0f" opacity="0.00" d=" M 150.40 120.14 C 150.66 116.48 152.96 113.72 156.03 111.95 C 157.93 114.40 161.23 113.65 163.68 114.99 C 165.95 117.35 167.47 120.31 168.73 123.30 C 166.31 123.47 163.89 123.41 161.48 123.15 C 158.42 120.42 154.05 121.38 150.40 120.14 Z" />
</g>
<g id="#ffffffff">
<path fill="#ffffff" opacity="1.00" d=" M 119.72 89.76 C 125.76 89.57 131.15 92.48 135.90 95.91 C 139.28 98.81 144.09 97.78 147.77 100.07 C 151.26 94.71 159.90 97.47 161.48 103.08 C 161.30 104.14 161.09 105.19 160.88 106.23 C 162.61 107.06 164.75 107.35 166.01 108.93 C 171.53 115.56 177.54 121.84 182.04 129.24 C 178.54 133.86 172.16 133.28 167.02 133.85 C 160.51 134.69 153.86 132.30 147.48 134.31 C 140.84 136.10 133.93 136.12 127.12 136.65 C 119.17 136.80 111.16 137.53 103.25 136.47 C 95.00 135.39 91.32 126.86 87.31 120.66 C 84.67 123.47 82.13 126.41 80.19 129.77 C 81.63 132.32 82.68 135.07 83.24 137.96 C 79.92 139.00 76.47 139.02 73.08 138.34 C 68.80 139.76 64.19 140.32 59.78 139.06 C 54.75 137.33 49.27 138.64 44.26 136.78 C 44.55 135.80 45.14 133.84 45.44 132.86 C 47.73 132.38 50.11 132.16 52.30 131.27 C 54.91 129.63 56.82 127.12 59.03 125.01 C 59.47 125.18 60.35 125.54 60.80 125.71 C 64.14 121.01 66.86 115.81 68.12 110.15 C 69.73 103.75 71.81 96.62 77.44 92.60 C 81.39 90.45 84.61 94.38 87.61 96.34 C 89.48 95.78 91.44 94.55 93.44 95.30 C 97.67 97.36 99.76 101.82 103.01 105.00 C 105.84 107.80 108.41 110.96 111.66 113.29 C 115.56 113.63 120.80 114.48 123.60 111.08 C 123.54 105.16 117.97 100.95 117.99 94.98 C 117.66 93.03 118.91 91.41 119.72 89.76 M 130.22 99.67 C 133.12 102.30 137.63 103.73 138.39 108.07 C 139.94 109.47 141.57 110.78 143.27 111.99 C 144.36 109.87 145.10 107.61 145.54 105.28 C 142.95 104.91 139.93 104.91 138.64 102.20 C 135.86 101.25 133.10 100.26 130.22 99.67 M 75.69 118.62 C 72.94 121.69 69.95 124.75 68.62 128.75 C 70.06 128.13 71.54 127.55 73.09 127.26 C 77.00 122.05 79.10 115.84 80.70 109.60 C 79.20 112.69 78.12 116.09 75.69 118.62 M 150.40 120.14 C 154.05 121.38 158.42 120.42 161.48 123.15 C 163.89 123.41 166.31 123.47 168.73 123.30 C 167.47 120.31 165.95 117.35 163.68 114.99 C 161.23 113.65 157.93 114.40 156.03 111.95 C 152.96 113.72 150.66 116.48 150.40 120.14 Z" />
</g>
</svg>
